<svg xmlns="http://www.w3.org/2000/svg" width="133" height="39" viewBox="0 0 203 59">
    <g fill="none" fill-rule="evenodd">
        <rect width="196" height="52" x="3.5" y="3.5" fill="#FFF" stroke="#000" stroke-width="7" rx="12"/>
        <path fill="#000" fill-rule="nonzero" d="M41.03 39c4.658 0 7.723-1.886 7.723-5.66v-.058c0-2.77-1.473-4.156-3.86-5.07 1.473-.825 2.71-2.122 2.71-4.45v-.06c0-1.414-.47-2.564-1.414-3.507-1.179-1.18-3.036-1.828-5.394-1.828h-9.58V39h9.816zm-1.208-12.291h-4.185v-4.362h4.48c1.916 0 2.977.766 2.977 2.122v.059c0 1.532-1.267 2.18-3.272 2.18zm1.209 8.312h-5.394v-4.54h5.247c2.328 0 3.36.855 3.36 2.24v.06c0 1.532-1.209 2.24-3.213 2.24zm21.374 4.333c6.366 0 10.994-4.805 10.994-10.67v-.06c0-5.865-4.569-10.61-10.935-10.61-6.367 0-10.994 4.804-10.994 10.67v.059c0 5.865 4.568 10.61 10.935 10.61zm.059-4.186c-3.655 0-6.249-2.947-6.249-6.484v-.06c0-3.536 2.535-6.425 6.19-6.425 3.655 0 6.249 2.948 6.249 6.485v.059c0 3.537-2.535 6.425-6.19 6.425zM92.15 39v-4.127H81.863V18.369h-4.54V39H92.15zm19.016 0v-4.038H99.965v-4.333h9.727v-4.038h-9.727v-4.185h11.053v-4.038H95.455V39h15.71zm13.268 0V22.553h6.278v-4.186h-17.096v4.186h6.279V39h4.539zm18.78.354c6.367 0 10.994-4.805 10.994-10.67v-.06c0-5.865-4.569-10.61-10.935-10.61-6.367 0-10.994 4.804-10.994 10.67v.059c0 5.865 4.568 10.61 10.935 10.61zm.059-4.186c-3.655 0-6.249-2.947-6.249-6.484v-.06c0-3.536 2.535-6.425 6.19-6.425 3.655 0 6.249 2.948 6.249 6.485v.059c0 3.537-2.535 6.425-6.19 6.425zm22.052 4.127c4.45 0 7.575-2.3 7.575-6.396v-.06c0-3.595-2.358-5.098-6.544-6.189-3.566-.914-4.45-1.356-4.45-2.712v-.059c0-1.002.913-1.798 2.652-1.798 1.74 0 3.537.767 5.365 2.034l2.358-3.419c-2.093-1.68-4.657-2.623-7.664-2.623-4.215 0-7.221 2.476-7.221 6.219v.059c0 4.097 2.682 5.246 6.838 6.308 3.449.884 4.156 1.473 4.156 2.623v.059c0 1.208-1.12 1.945-2.977 1.945-2.358 0-4.303-.973-6.16-2.505l-2.682 3.213c2.476 2.21 5.63 3.3 8.754 3.3z"/>
    </g>
</svg>
