<svg xmlns="http://www.w3.org/2000/svg" width="30" height="30" viewBox="0 0 53 59">
    <g fill="none" fill-rule="evenodd">
        <rect width="46" height="52" x="3.5" y="3.5" fill="#FFF" stroke="#000" stroke-width="7" rx="12"/>
        <path fill="#030D0F" d="M33.994 12c-.005 0-.017.356-.017.456 0 1.597-.006 3.274.006 4.871.002.245-.074.347-.318.343-.888-.011-1.777.011-2.665.028a5.671 5.671 0 0 0-.916.117c-.565.103-.976.555-1 1.176-.044 1.132-.038 2.544-.06 3.676-.003.21.143.45.263.45H34l-.58 5.56H28.54V43.5h-5.707V28.676H19.02c-.006 0-.015-.535-.015-.615 0-1.623.004-3.424-.006-5.049-.002-.228.076-.365.293-.363 1.12.01 2.241-.04 3.362-.04.365 0 .361-.025.365-.37.015-1.432.004-2.875.057-4.306.04-1.052.267-2.083.769-3.035a4.18 4.18 0 0 1 2.542-2.11c.63-.195 1.297-.436 1.946-.571.091-.019.183-.217.272-.217h5.388z"/>
    </g>
</svg>
