<svg xmlns="http://www.w3.org/2000/svg" width="30" height="30" viewBox="0 0 53 59">
    <g fill="none" fill-rule="evenodd">
        <rect width="46" height="52" x="3.5" y="3.5" fill="#FFF" stroke="#000" stroke-width="7" rx="12"/>
        <g fill="#030D0F" transform="translate(13.248 16.248)">
            <path d="M13.357 24.272c1.768 0 3.537.007 5.307-.005.44-.004.888-.028 1.315-.123 2.582-.571 4.289-2.707 4.296-5.373.01-3.613.006-7.225-.003-10.84a5.66 5.66 0 0 0-.121-1.202c-.575-2.58-2.708-4.288-5.373-4.296-3.614-.01-7.227-.006-10.84.003-.401 0-.812.035-1.202.122-2.582.574-4.289 2.707-4.296 5.373-.01 3.613-.007 7.227.003 10.84 0 .402.034.812.121 1.202.572 2.568 2.696 4.276 5.334 4.296 1.82.013 3.64.003 5.459.003m-.024 2.427c-1.769 0-3.539.003-5.307 0-3.53-.008-6.452-2.043-7.586-5.38-.274-.81-.4-1.705-.41-2.563-.046-3.6-.028-7.201-.017-10.801.01-3.795 2.506-6.927 6.2-7.764C6.8.059 7.418.015 8.019.012 11.581-.004 15.145 0 18.708.005c3.827.007 6.952 2.476 7.805 6.193a8.17 8.17 0 0 1 .183 1.805c.017 3.562.012 7.126.008 10.689-.006 3.832-2.459 6.945-6.186 7.812-.596.14-1.224.178-1.84.186-1.781.024-3.563.009-5.345.009"/>
            <path d="M13.365 8.5a4.844 4.844 0 0 0-4.86 4.825 4.845 4.845 0 0 0 4.845 4.88 4.844 4.844 0 0 0 4.86-4.828A4.844 4.844 0 0 0 13.365 8.5m-.018-2.427c3.996-.009 7.288 3.278 7.29 7.278.001 4-3.291 7.287-7.287 7.28-3.987-.006-7.256-3.267-7.272-7.257-.017-3.995 3.267-7.292 7.269-7.3"/>
            <circle cx="21" cy="6" r="1.5"/>
        </g>
    </g>
</svg>
