<svg xmlns="http://www.w3.org/2000/svg" width="59" height="30" viewBox="0 0 89 59">
    <path fill="#030D0F" fill-rule="evenodd" d="M51.138 0v21.609c.5-.201.911-.313 1.268-.519 1.11-.642 2.197-1.325 3.298-1.982 1.62-.967 3.234-1.944 4.868-2.886 1.227-.707 2.494-1.346 3.722-2.053.744-.43 1.432-.96 2.176-1.395 1.177-.689 2.386-1.321 3.565-2.006.786-.456 1.533-.982 2.319-1.438.63-.365 1.301-.654 1.936-1.009.72-.402 1.419-.842 2.128-1.262.621-.368 1.244-.734 1.867-1.1.758-.443 1.514-.89 2.275-1.327.814-.467 1.64-.912 2.45-1.385 1.225-.717 2.436-1.455 3.66-2.174.585-.343 1.184-.662 1.866-1.042.016.319.035.522.036.725.017 4.33.022 8.66.05 12.99.07 10.676.143 21.352.228 32.027.033 4.19.104 8.381.146 12.571.002.202-.11.404-.168.606-.194-.086-.394-.161-.58-.26-.724-.385-1.445-.774-2.163-1.17-.246-.136-.47-.31-.715-.449-1.444-.816-2.894-1.62-4.334-2.441-1.164-.663-2.314-1.347-3.473-2.017-1.55-.896-3.1-1.791-4.655-2.677-1.427-.814-2.864-1.612-4.293-2.423-1.07-.606-2.133-1.227-3.203-1.833-1.448-.82-2.9-1.632-4.352-2.448-1.105-.62-2.211-1.242-3.316-1.865l-4.295-2.423c-.473-.268-.945-.54-1.427-.79-.18-.092-.386-.129-.65-.214v21.08c-.57-.291-1.077-.53-1.563-.803-1.15-.649-2.29-1.315-3.432-1.974-1.113-.642-2.217-1.3-3.34-1.925-1.174-.654-2.375-1.26-3.548-1.915-.861-.481-1.687-1.026-2.545-1.51-1.176-.663-2.376-1.281-3.55-1.946-1.233-.7-2.442-1.443-3.674-2.144-1.264-.72-2.547-1.405-3.813-2.12-.776-.439-1.535-.907-2.305-1.358-1.57-.92-3.138-1.846-4.717-2.754a242.037 242.037 0 0 0-4.283-2.416c-1.273-.7-2.576-1.344-3.841-2.056-1.284-.722-2.53-1.514-3.81-2.244-1.188-.679-2.401-1.316-3.601-1.977a209.586 209.586 0 0 1-2.928-1.63c-.165-.094-.282-.27-.422-.408.148-.127.283-.276.448-.375 1.69-1.021 3.375-2.05 5.08-3.043 1.22-.71 2.477-1.359 3.705-2.055.713-.405 1.4-.859 2.104-1.28.577-.346 1.164-.676 1.746-1.012.97-.563 1.94-1.127 2.912-1.688 1.695-.977 3.397-1.944 5.085-2.933 1.286-.754 2.544-1.558 3.836-2.3 1.538-.886 3.109-1.715 4.649-2.596.728-.416 1.408-.913 2.129-1.34.624-.369 1.28-.683 1.914-1.04.422-.236.823-.511 1.243-.753 1.607-.921 3.221-1.83 4.825-2.758.71-.412 1.391-.875 2.099-1.29.769-.452 1.554-.874 2.33-1.314a67.4 67.4 0 0 0 1.398-.819c.735-.44 1.462-.892 2.199-1.33.558-.331 1.126-.649 1.69-.972.372-.214.743-.431 1.118-.64.153-.086.317-.153.628-.302"/>
</svg>
