<svg xmlns="http://www.w3.org/2000/svg" width="30" height="30" viewBox="0 0 53 59">
    <g fill="none" fill-rule="evenodd">
        <rect width="46" height="52" x="3.5" y="3.5" fill="#FFF" stroke="#000" stroke-width="7" rx="12"/>
        <path fill="#030D0F" d="M33.41 17.387c1.179.197 2.152.774 3.04 1.536.146.126.426.186.622.15a6.162 6.162 0 0 0 1.164-.354c.752-.297 1.492-.622 2.323-.972-.331 1.37-1.18 2.307-2.309 3.24.455-.093.774-.143 1.084-.225.682-.181 1.359-.378 2.038-.569v.215c-.096.078-.2.148-.287.236-.821.838-1.647 1.674-2.453 2.527-.147.156-.305.39-.3.584a16.495 16.495 0 0 1-.654 5.073c-.82 2.829-2.227 5.332-4.298 7.424-.991 1.001-2.148 1.874-3.335 2.649-1.936 1.262-4.11 1.976-6.42 2.26-.415.05-.824.14-1.235.211h-3.054c-.074-.035-.145-.097-.22-.103-1.481-.108-2.934-.363-4.297-.954-1.166-.506-2.3-1.084-3.447-1.63v-.108c2 .065 3.998.042 5.87-.768 1.042-.452 2.03-1.022 3.044-1.539l-.076-.14c-2.634-.185-5.72-2.658-5.38-4.293h2.232c-3.12-.991-4.773-3.93-4.43-6.033l2.322.69c-3.08-2.616-2.757-6.595-1.42-8.08 3.289 3.795 7.446 5.9 12.456 6.29 0-.688-.031-1.33.006-1.967.106-1.79 1.01-3.162 2.39-4.26 1.513-1.297 4.983-1.097 5.024-1.09"/>
    </g>
</svg>
